HIERARCHY
ROOT Hips
{
	OFFSET -0.001795 -0.223333 0.028219
	CHANNELS 6 Xposition Yposition Zposition Zrotation Yrotation Xrotation 
	JOINT LeftUpLeg
	{
		OFFSET 0.069520 -0.091406 -0.006815
		CHANNELS 3 Zrotation Yrotation Xrotation
		JOINT LeftLeg
		{
			OFFSET 0.034277 -0.375199 -0.004496
			CHANNELS 3 Zrotation Yrotation Xrotation
			JOINT LeftFoot
			{
				OFFSET -0.013596 -0.397961 -0.043693
				CHANNELS 3 Zrotation Yrotation Xrotation
				JOINT LeftToe
				{
					OFFSET 0.026358 -0.055791 0.119288
					CHANNELS 3 Zrotation Yrotation Xrotation
					End Site
					{
						OFFSET 0.000000 0.000000 0.000000
					}
				}
			}
		}
	}
	JOINT RightUpLeg
	{
		OFFSET -0.067670 -0.090522 -0.004320
		CHANNELS 3 Zrotation Yrotation Xrotation
		JOINT RightLeg
		{
			OFFSET -0.038290 -0.382569 -0.008850
			CHANNELS 3 Zrotation Yrotation Xrotation
			JOINT RightFoot
			{
				OFFSET 0.015774 -0.398415 -0.042312
				CHANNELS 3 Zrotation Yrotation Xrotation
				JOINT RightToe
				{
					OFFSET -0.025372 -0.048144 0.123348
					CHANNELS 3 Zrotation Yrotation Xrotation
					End Site
					{
						OFFSET 0.000000 0.000000 0.000000
					}
				}
			}
		}
	}
	JOINT Spine
	{
		OFFSET -0.002533 0.108963 -0.026696
		CHANNELS 3 Zrotation Yrotation Xrotation
		JOINT Spine1
		{
			OFFSET 0.005487 0.135180 0.001092
			CHANNELS 3 Zrotation Yrotation Xrotation
			JOINT Spine2
			{
				OFFSET 0.001457 0.052922 0.025425
				CHANNELS 3 Zrotation Yrotation Xrotation
				JOINT Neck
				{
					OFFSET -0.002778 0.213870 -0.042857
					CHANNELS 3 Zrotation Yrotation Xrotation
					JOINT Head
					{
						OFFSET 0.005152 0.064970 0.051349
						CHANNELS 3 Zrotation Yrotation Xrotation
						End Site
						{
							OFFSET 0.000000 0.000000 0.000000
						}
					}
				}
				JOINT LeftShoulder
				{
					OFFSET 0.078845 0.121749 -0.034090
					CHANNELS 3 Zrotation Yrotation Xrotation
					JOINT LeftArm
					{
						OFFSET 0.090977 0.030469 -0.008868
						CHANNELS 3 Zrotation Yrotation Xrotation
						JOINT LeftForeArm
						{
							OFFSET 0.259612 -0.012772 -0.027456
							CHANNELS 3 Zrotation Yrotation Xrotation
							JOINT LeftHand
							{
								OFFSET 0.249234 0.008986 -0.001171
								CHANNELS 3 Zrotation Yrotation Xrotation
								End Site
								{
									OFFSET 0.000000 0.000000 0.000000
								}
							}
						}
					}
				}
				JOINT RightShoulder
				{
					OFFSET -0.081759 0.118833 -0.038615
					CHANNELS 3 Zrotation Yrotation Xrotation
					JOINT RightArm
					{
						OFFSET -0.096012 0.032551 -0.009143
						CHANNELS 3 Zrotation Yrotation Xrotation
						JOINT RightForeArm
						{
							OFFSET -0.253742 -0.013329 -0.021401
							CHANNELS 3 Zrotation Yrotation Xrotation
							JOINT RightHand
							{
								OFFSET -0.255298 0.007772 -0.005559
								CHANNELS 3 Zrotation Yrotation Xrotation
								End Site
								{
									OFFSET 0.000000 0.000000 0.000000
								}
							}
						}
					}
				}
			}
		}
	}
}
MOTION
Frames: 7
Frame Time: 0.050000
0.000000 0.953137 0.000000 -0.402572 -5.652920 0.069684 2.880659 0.529287 7.155690 -2.683044 0.366967 -3.853549 2.542632 8.457786 13.242369 0.000000 0.000000 0.000000 -4.273427 -0.069270 4.033188 4.167238 -0.390829 -4.773076 0.779224 -6.831457 19.287237 0.000000 0.000000 0.000000 6.235446 -0.288529 2.621456 -4.858268 1.720037 -22.395359 -1.075936 7.389103 28.949648 8.614543 -2.620545 -27.202687 0.000000 0.000000 0.000000 -19.840795 -4.335387 0.358750 -53.352444 -5.366482 -6.360799 -5.917526 -24.176121 2.350331 0.000000 0.000000 0.000000 25.886088 -6.215176 -4.220502 57.250176 5.622017 -5.796945 5.236589 23.479670 2.338092 0.000000 0.000000 0.000000 
-0.000066 0.951777 0.000172 -0.528454 -6.575647 0.333601 3.269388 0.550593 7.569850 -3.381341 0.443280 -4.811260 2.931649 8.985137 13.203356 0.000000 0.000000 0.000000 -4.248439 -0.011399 3.207517 4.202038 -0.381978 -3.926104 1.116936 -6.176076 18.481725 0.000000 0.000000 0.000000 6.684075 -0.256565 2.149548 -5.452559 1.864492 -22.012077 -1.149855 7.761414 28.371945 9.024936 -2.819490 -27.458001 0.000000 0.000000 0.000000 -19.141070 -3.473998 -0.020035 -53.982924 -5.123084 -6.495088 -5.652828 -24.494342 2.338067 0.000000 0.000000 0.000000 25.462098 -7.028440 -4.815629 58.496411 4.276129 -6.380699 5.473175 25.173352 2.596873 0.000000 0.000000 0.000000 
-0.000108 0.951622 0.000122 -0.425431 -6.709108 0.384838 3.286329 0.507958 7.009318 -3.645255 0.462300 -3.927165 3.049966 9.132129 13.048809 0.000000 0.000000 0.000000 -4.304863 -0.008374 3.276847 3.972015 -0.368407 -4.480599 1.356951 -6.038675 19.165651 0.000000 0.000000 0.000000 6.660810 -0.213766 1.707321 -5.677885 1.912496 -22.494033 -0.804163 7.213942 29.137662 8.220047 -2.519928 -27.247143 0.000000 0.000000 0.000000 -18.999545 -3.723864 0.336934 -54.148442 -5.246052 -6.580049 -5.199957 -23.632830 2.192207 0.000000 0.000000 0.000000 25.217190 -6.423129 -4.597670 58.039215 3.900512 -6.575833 5.501327 24.679601 2.499214 0.000000 0.000000 0.000000 
-0.000262 0.951721 0.000168 -0.234519 -7.241174 0.208401 3.087615 0.586522 7.708069 -3.774994 0.482336 -4.740240 3.181684 9.357092 13.420590 0.000000 0.000000 0.000000 -4.840554 0.029031 3.445396 4.481936 -0.385412 -4.603171 1.648984 -5.663132 19.199162 0.000000 0.000000 0.000000 6.685909 -0.225199 1.872081 -5.845288 1.943441 -22.828726 -0.833018 7.442751 29.308971 8.340889 -2.672105 -26.816387 0.000000 0.000000 0.000000 -19.111991 -3.426004 0.207624 -54.535706 -4.892138 -6.797927 -5.277864 -24.074993 2.271107 0.000000 0.000000 0.000000 25.847845 -6.757772 -4.912964 57.741559 3.558997 -6.748223 6.008764 24.902969 2.637289 0.000000 0.000000 0.000000 
-0.000467 0.952300 0.000128 -0.245430 -7.218565 -0.022841 3.060737 0.591105 7.724329 -3.662520 0.470576 -4.337649 3.169159 9.354222 13.499990 0.000000 0.000000 0.000000 -4.725077 0.011753 3.565755 4.318598 -0.379735 -4.362177 1.664544 -5.670023 19.292072 0.000000 0.000000 0.000000 6.404953 -0.238625 2.113862 -5.383122 1.832649 -22.258288 -0.997120 7.252579 28.481539 7.915813 -2.557431 -25.905202 0.000000 0.000000 0.000000 -19.074937 -3.264209 0.130976 -54.774125 -4.678548 -6.840099 -5.576043 -23.822469 2.304572 0.000000 0.000000 0.000000 25.736944 -6.461061 -4.786267 57.657654 3.358992 -6.741914 5.558107 24.379112 2.454477 0.000000 0.000000 0.000000 
-0.000605 0.952681 0.000144 -0.233482 -7.290890 -0.053835 3.066266 0.607713 7.913661 -3.693382 0.475149 -4.600113 3.151633 9.352663 13.698745 0.000000 0.000000 0.000000 -4.839204 0.013299 3.733812 4.500445 -0.386249 -4.621264 1.757556 -5.600859 19.501461 0.000000 0.000000 0.000000 6.243678 -0.237970 2.147646 -5.364216 1.820978 -22.664237 -0.825778 7.188443 28.764247 7.614152 -2.436893 -25.677243 0.000000 0.000000 0.000000 -19.017040 -3.176145 0.130181 -54.977441 -4.583977 -6.942422 -5.564687 -23.802037 2.312336 0.000000 0.000000 0.000000 25.673817 -6.548767 -4.867481 57.520217 2.925130 -6.952596 6.210963 24.369675 2.577943 0.000000 0.000000 0.000000 
-0.000706 0.952798 0.000145 -0.270313 -7.228040 -0.173658 3.133421 0.608813 7.982682 -3.703828 0.475176 -4.492768 3.117420 9.304563 13.687153 0.000000 0.000000 0.000000 -4.608471 -0.015070 3.908647 4.180454 -0.372934 -4.671641 1.730700 -5.638430 19.503724 0.000000 0.000000 0.000000 6.185929 -0.238372 2.189446 -5.256452 1.797644 -22.403209 -0.937446 7.000393 28.547479 7.765463 -2.534936 -25.763497 0.000000 0.000000 0.000000 -19.206883 -3.328412 0.230577 -55.059195 -4.360581 -7.033477 -5.618719 -23.861917 2.333502 0.000000 0.000000 0.000000 25.798243 -6.246153 -4.744983 57.590898 2.707533 -7.033221 6.164091 24.447684 2.566518 0.000000 0.000000 0.000000 
